<svg width="72" height="108" viewBox="0 0 72 108" fill="none" xmlns="http://www.w3.org/2000/svg">
<path d="M27.6595 11.5014C28.7641 11.5014 29.6595 10.6059 29.6595 9.50135V8.37384C29.6604 8.3648 29.6682 8.35811 29.6773 8.35811H42.0792C42.0942 8.35811 42.1092 8.36108 42.1227 8.36766C42.1368 8.37452 42.1515 8.38236 42.1662 8.39106C42.1809 8.39976 42.1949 8.40885 42.2079 8.41807C42.2238 8.42937 42.2325 8.44803 42.2325 8.46755V18.9135C42.2316 18.9225 42.2238 18.9292 42.2147 18.9292H35.1602C32.9903 18.9292 31.2312 20.6883 31.2312 22.8582V33.0007C31.2312 33.019 31.209 33.0282 31.196 33.0152C29.1553 30.9745 27.0171 29.6405 24.7845 29.3892C22.4657 29.1282 20.3849 30.0684 18.6049 31.8483L2.50214 47.9511C0.722151 49.7311 -0.217961 51.8119 0.0429995 54.1307C0.294259 56.3633 1.62828 58.5015 3.66901 60.5422L21.0025 77.8757C21.7836 78.6568 23.0499 78.6568 23.8309 77.8757L27.1925 74.5142C27.9735 73.7332 27.9735 72.4668 27.1925 71.6858L10.259 54.7523C10.0743 54.5676 9.97027 54.4256 9.91508 54.33C9.89907 54.3022 9.9028 54.2676 9.92439 54.2439C9.9345 54.2329 9.94598 54.2208 9.95899 54.2078L24.8616 39.3052C24.8746 39.2922 24.8866 39.2807 24.8977 39.2706C24.9214 39.249 24.956 39.2453 24.9838 39.2613C25.0794 39.3165 25.2214 39.4205 25.4061 39.6052L31.2312 45.4303L35.675 49.8742C36.935 51.1341 39.0893 50.2418 39.0893 48.46V45.4303V40.9085V28.7873C39.0893 27.6827 39.9847 26.7873 41.0893 26.7873H42.2325C45.0847 26.7873 47.2465 25.5109 48.5643 23.6806C49.7379 22.0507 50.0906 20.2128 50.0906 18.9292V8.35811C50.0906 5.75634 48.8376 3.7375 47.331 2.45691C45.9161 1.25425 44.0521 0.5 42.2325 0.5H29.6595C26.8074 0.5 24.6455 1.77642 23.3277 3.60669C22.1542 5.23661 21.8014 7.07453 21.8014 8.35811V9.50135C21.8014 10.6059 22.6969 11.5014 23.8014 11.5014H27.6595Z" fill="black"/>
<path d="M61.1432 53.4412C61.088 53.3455 60.984 53.2036 60.7992 53.0188L43.0374 35.257C42.6623 34.8819 42.4516 34.3732 42.4516 33.8428V32.9779C42.4516 31.8539 43.3855 30.9525 44.4891 30.7398C45.5604 30.5334 46.7554 30.1334 47.7009 29.4219C48.2617 28.9998 49.0893 28.929 49.5856 29.4253L67.3892 47.2289C69.43 49.2697 70.764 51.4078 71.0153 53.6404C71.2762 55.9592 70.3361 58.04 68.5561 59.82L52.4533 75.9229C50.6733 77.7029 48.5925 78.643 46.2737 78.382C44.0411 78.1307 41.903 76.7967 39.8622 74.756L22.5287 57.4225C21.7477 56.6414 21.7477 55.3751 22.5287 54.594L25.8903 51.2325C26.6713 50.4514 27.9377 50.4514 28.7187 51.2325L45.6521 68.166C45.8369 68.3507 45.9788 68.4547 46.0745 68.5099C46.1022 68.5259 46.1369 68.5222 46.1605 68.5006C46.1716 68.4905 46.1837 68.479 46.1967 68.466L61.0993 53.5634C61.1123 53.5504 61.1237 53.5383 61.1339 53.5272C61.1555 53.5036 61.1592 53.4689 61.1432 53.4412Z" fill="black"/>
<path d="M49.6211 94.02V103.68C49.6211 104.711 49.9498 105.563 50.6743 106.141C51.3772 106.702 52.3746 106.94 53.5811 106.94H62.9711C63.9045 106.94 64.6611 106.183 64.6611 105.25C64.6611 104.317 63.9045 103.56 62.9711 103.56H53.8211C53.5683 103.56 53.4714 103.507 53.4445 103.485C53.4442 103.485 53.444 103.485 53.4436 103.485C53.4356 103.479 53.4011 103.452 53.4011 103.32V94.38C53.4011 94.248 53.4356 94.2214 53.4436 94.2153C53.444 94.215 53.4442 94.2148 53.4445 94.2146C53.4714 94.193 53.5683 94.14 53.8211 94.14H62.9711C63.9045 94.14 64.6611 93.3834 64.6611 92.45C64.6611 91.5166 63.9045 90.76 62.9711 90.76H53.5811C52.3746 90.76 51.3772 90.9984 50.6743 91.5591C49.9498 92.1371 49.6211 92.9892 49.6211 94.02Z" fill="black" stroke="black"/>
<path d="M29.5785 103.797C28.5157 105.029 29.3909 106.94 31.0179 106.94C31.5703 106.94 32.0954 106.7 32.4565 106.282L35.3407 102.943C35.9398 102.249 37.0153 102.25 37.613 102.945L40.4802 106.278C40.8417 106.698 41.3683 106.94 41.9226 106.94C43.5496 106.94 44.426 105.03 43.365 103.797L39.8401 99.6985C39.3563 99.136 39.3564 98.3043 39.8404 97.7419L43.144 93.9032C44.2053 92.6699 43.3291 90.76 41.7021 90.76C41.1482 90.76 40.6218 91.0014 40.2605 91.4212L37.6158 94.4932C37.0173 95.1883 35.9407 95.1883 35.3422 94.4932L32.6975 91.4212C32.3361 91.0014 31.8097 90.76 31.2559 90.76C29.6289 90.76 28.7527 92.6699 29.814 93.9032L33.1159 97.74C33.6004 98.303 33.5999 99.1358 33.1147 99.6982L29.5785 103.797Z" fill="black" stroke="black"/>
<path d="M8.26172 94.02V103.68C8.26172 104.711 8.59041 105.563 9.31492 106.141C10.0179 106.702 11.0152 106.94 12.2217 106.94H21.6117C22.5451 106.94 23.3017 106.183 23.3017 105.25C23.3017 104.317 22.5451 103.56 21.6117 103.56H12.4617C12.209 103.56 12.112 103.507 12.0851 103.485C12.0849 103.485 12.0846 103.485 12.0843 103.485C12.0762 103.479 12.0417 103.452 12.0417 103.32V94.38C12.0417 94.248 12.0762 94.2214 12.0843 94.2153C12.0846 94.215 12.0849 94.2148 12.0851 94.2146C12.112 94.193 12.209 94.14 12.4617 94.14H21.6117C22.5451 94.14 23.3017 93.3834 23.3017 92.45C23.3017 91.5166 22.5451 90.76 21.6117 90.76H12.2217C11.0152 90.76 10.0179 90.9984 9.31492 91.5591C8.59041 92.1371 8.26172 92.9892 8.26172 94.02Z" fill="black" stroke="black"/>
</svg>

