<svg width="48" height="49" viewBox="0 0 48 49" fill="none" xmlns="http://www.w3.org/2000/svg">
<path d="M32.1105 31.2452L32.464 30.8917L32.1105 30.5381L20.8887 19.3163C19.6278 18.0554 18.3668 17.2943 17.1068 17.1525C15.8193 17.0076 14.6385 17.5197 13.5843 18.5739L3.33828 28.8198C2.28409 29.874 1.77198 31.0549 1.91688 32.3424C2.05868 33.6024 2.81985 34.8634 4.08074 36.1243L15.3025 47.346L15.6561 47.6996L16.0096 47.346L18.534 44.8217L18.8876 44.4681L18.534 44.1146L7.56678 33.1473C7.27962 32.8602 7.18901 32.651 7.17468 32.5189C7.16323 32.4133 7.1916 32.278 7.37586 32.0938L16.8582 22.6114C17.0424 22.4272 17.1777 22.3988 17.2833 22.4103C17.4155 22.4246 17.6246 22.5152 17.9118 22.8024L28.879 33.7696L29.2325 34.1231L29.5861 33.7696L32.1105 31.2452Z" fill="#1E1E1E" stroke="#1E1E1E"/>
<path d="M31.9892 17.1386L32.3427 16.785L32.6963 17.1386L43.918 28.3604C45.1789 29.6212 45.9401 30.8822 46.0819 32.1423C46.2268 33.4297 45.7147 34.6106 44.6605 35.6648L34.4145 45.9107C33.3603 46.9649 32.1795 47.477 30.892 47.3321C29.632 47.1903 28.371 46.4292 27.1101 45.1683L15.8883 33.9465L15.5348 33.5929L15.8883 33.2394L18.4127 30.715L18.7663 30.3615L19.1198 30.715L30.087 41.6822C30.3742 41.9694 30.5833 42.06 30.7155 42.0743C30.821 42.0858 30.9564 42.0574 31.1406 41.8732L40.6229 32.3909C40.8072 32.2066 40.8356 32.0713 40.8241 31.9657C40.8098 31.8336 40.7192 31.6244 40.432 31.3373L29.4648 20.37L29.1112 20.0165L29.4648 19.6629L31.9892 17.1386Z" fill="#1E1E1E" stroke="#1E1E1E"/>
<path d="M17.7646 7.5V5.5C17.7646 4.66667 18.2646 3 20.2646 3C22.2646 3 26.4313 3 28.2646 3C29.2646 3 30.7646 3.9 30.7646 5.5C30.7646 7.1 30.7646 9.16667 30.7646 10C30.7646 10.8333 30.2646 12.5 28.2646 12.5H23.7646V22V25" stroke="#1E1E1E" stroke-width="5" stroke-linejoin="round"/>
</svg>
